<svg width="64" height="64" viewBox="0 0 64 64" fill="none" xmlns="http://www.w3.org/2000/svg">
<path d="M18.5065 13.3333C18.5058 14.7478 17.9432 16.1041 16.9425 17.1038C15.9418 18.1035 14.585 18.6647 13.1705 18.664C11.756 18.6633 10.3997 18.1007 9.40006 17.1C8.40036 16.0993 7.83914 14.7425 7.83984 13.328C7.84055 11.9135 8.40313 10.5573 9.40383 9.55756C10.4045 8.55786 11.7614 7.99664 13.1758 7.99735C14.5903 7.99805 15.9466 8.56063 16.9463 9.56133C17.946 10.562 18.5072 11.9189 18.5065 13.3333ZM18.6665 22.6133H7.99984V56H18.6665V22.6133ZM35.5198 22.6133H24.9065V56H35.4132V38.48C35.4132 28.72 48.1332 27.8133 48.1332 38.48V56H58.6665V34.8533C58.6665 18.4 39.8398 19.0133 35.4132 27.0933L35.5198 22.6133Z" fill="black"/>
</svg>
