<svg width="64" height="64" viewBox="0 0 64 64" fill="none" xmlns="http://www.w3.org/2000/svg">
<path d="M58.6668 32C58.6668 17.28 46.7202 5.33334 32.0002 5.33334C17.2802 5.33334 5.3335 17.28 5.3335 32C5.3335 46.72 17.2802 58.6667 32.0002 58.6667C46.7202 58.6667 58.6668 46.72 58.6668 32ZM32.0002 39.44V34.6667H24.0002C22.5335 34.6667 21.3335 33.4667 21.3335 32C21.3335 30.5333 22.5335 29.3333 24.0002 29.3333H32.0002V24.56C32.0002 23.36 33.4402 22.7733 34.2668 23.6267L41.7068 31.0667C42.2402 31.6 42.2402 32.4267 41.7068 32.96L34.2668 40.4C34.0788 40.5843 33.8405 40.7088 33.5819 40.7578C33.3232 40.8069 33.0559 40.7783 32.8135 40.6756C32.5711 40.5729 32.3645 40.4008 32.2198 40.1809C32.075 39.9611 31.9986 39.7032 32.0002 39.44Z" fill="#1A1A1A"/>
</svg>
