<svg width="64" height="64" viewBox="0 0 64 64" fill="none" xmlns="http://www.w3.org/2000/svg">
<path d="M12.7999 41.04C13.0678 41.3289 13.3899 41.5623 13.748 41.7267C14.1061 41.8911 14.493 41.9834 14.8867 41.9982C15.2805 42.0131 15.6733 41.9503 16.0427 41.8133C16.4122 41.6763 16.751 41.4679 17.0399 41.2L31.9999 27.092L46.9599 41.2C47.2488 41.4679 47.5876 41.6763 47.9571 41.8132C48.3265 41.9502 48.7193 42.013 49.113 41.9981C49.5067 41.9833 49.8937 41.891 50.2518 41.7266C50.6098 41.5622 50.932 41.3289 51.1999 41.04C51.4678 40.7511 51.6762 40.4122 51.8131 40.0428C51.95 39.6734 52.0129 39.2806 51.998 38.8869C51.9832 38.4931 51.8909 38.1062 51.7265 37.7481C51.5621 37.3901 51.3288 37.0679 51.0399 36.8L34.0399 20.8C33.4851 20.2855 32.7565 19.9996 31.9999 19.9996C31.2433 19.9996 30.5146 20.2855 29.9599 20.8L12.9599 36.8C12.6709 37.0679 12.4376 37.39 12.2732 37.7481C12.1088 38.1062 12.0165 38.4931 12.0016 38.8869C11.9868 39.2806 12.0496 39.6734 12.1866 40.0428C12.3236 40.4123 12.532 40.7511 12.7999 41.04Z" fill="#1A1A1A"/>
</svg>
