<svg width="64" height="64" viewBox="0 0 64 64" fill="none" xmlns="http://www.w3.org/2000/svg">
<path d="M10.6668 56H36.3202C37.859 56.0008 39.3798 55.6682 40.7779 55.0252C42.1759 54.382 43.4181 53.4437 44.4188 52.2747L58.0242 36.4027C58.3091 36.0709 58.508 35.6741 58.6034 35.2474C58.6989 34.8206 58.6879 34.3769 58.5714 33.9554C58.455 33.5338 58.2366 33.1474 57.9357 32.8301C57.6347 32.5129 57.2603 32.2745 56.8455 32.136L51.5975 30.3867C50.3291 29.9744 48.9786 29.8811 47.6656 30.115C46.3526 30.349 45.1174 30.903 44.0695 31.728L35.5762 38.52L33.9308 35.2267C33.0494 33.4514 31.6884 31.9584 30.0021 30.9169C28.3158 29.8753 26.3715 29.3267 24.3895 29.3333H10.6668C7.7255 29.3333 5.3335 31.7253 5.3335 34.6667V50.6667C5.3335 53.608 7.7255 56 10.6668 56ZM10.6668 34.6667H24.3895C26.4242 34.6667 28.2508 35.7947 29.1602 37.6133L30.3522 40H18.6668V45.3333H34.7042C35.1144 45.3279 35.5179 45.2275 35.8828 45.04L35.8908 45.0373L35.9015 45.032H35.9095L35.9148 45.0293H35.9255L35.9282 45.0267C35.9522 45.0347 35.9362 45.024 35.9362 45.024C35.9628 45.024 35.9415 45.0213 35.9415 45.0213H35.9442L35.9495 45.0187L35.9575 45.016L35.9628 45.0133L35.9682 45.0107L35.9762 45.008L35.9815 45.0053C35.9895 45.0053 35.9842 45.0027 35.9868 45.0027L35.9948 44.9973L36.0002 44.9947L36.0055 44.992L36.0135 44.9893L36.0188 44.9867H36.0215L36.0268 44.984L36.0348 44.9813L36.0402 44.9787C36.0642 44.976 36.0482 44.976 36.0482 44.976L36.0535 44.9733C36.1563 44.9113 36.2543 44.8418 36.3468 44.7653L47.4028 35.92C48.1015 35.3653 49.0642 35.192 49.9095 35.4747L51.3948 35.9707L40.3735 48.832C39.8665 49.4077 39.243 49.8689 38.5441 50.1852C37.8453 50.5016 37.0872 50.6657 36.3202 50.6667H10.6668V34.6667ZM42.6668 5.33334H42.6215C42.1868 5.33867 39.9388 5.43734 37.3335 7.21334C34.7975 5.48534 32.6028 5.34667 32.0855 5.336L32.0055 5.33334H31.9948C29.8588 5.33334 27.8482 6.168 26.3442 7.67467C24.8348 9.18667 24.0002 11.1947 24.0002 13.3333C24.0002 15.472 24.8348 17.48 26.2962 18.944L35.4002 28.5067C35.6506 28.7667 35.951 28.9735 36.2833 29.1146C36.6156 29.2558 36.973 29.3284 37.3341 29.3282C37.6951 29.3279 38.0524 29.2548 38.3845 29.1132C38.7166 28.9716 39.0167 28.7644 39.2668 28.504L48.3228 18.9893C49.8348 17.48 50.6668 15.472 50.6668 13.3333C50.6668 11.1947 49.8322 9.18667 48.3255 7.67734C47.5851 6.93213 46.7041 6.34123 45.7337 5.93887C44.7633 5.53652 43.7227 5.3307 42.6722 5.33334H42.6668ZM45.3335 13.3333C45.3335 14.0453 45.0562 14.7147 44.5042 15.2667L37.3335 22.8L30.1148 15.2187C29.6108 14.7147 29.3335 14.0453 29.3335 13.3333C29.3335 12.6213 29.6108 11.952 30.1175 11.4453C30.5997 10.9548 31.2564 10.6749 31.9442 10.6667C32.0108 10.6693 33.2828 10.752 34.7895 11.96C35.0055 12.1333 35.2242 12.3307 35.4482 12.552L37.3335 14.4373L39.2188 12.552C39.4428 12.3307 39.6615 12.1333 39.8775 11.96C41.2882 10.8267 42.4802 10.6853 42.6828 10.6693C43.0304 10.6693 43.3745 10.738 43.6954 10.8717C44.0162 11.0053 44.3074 11.2012 44.5522 11.448C45.0562 11.952 45.3335 12.6213 45.3335 13.3333Z" fill="black"/>
</svg>
